<mxfile host="app.diagrams.net" modified="2023-05-24T00:39:26.719Z" agent="Mozilla/5.0 (Windows NT 10.0; Win64; x64) AppleWebKit/537.36 (KHTML, like Gecko) Chrome/111.0.0.0 Safari/537.36" version="21.3.3" etag="VFTTsIHynZ6cZM2IN3LD" type="github">
  <diagram name="第 1 页" id="8xFobPmziWlLf25zK931">
    <mxGraphModel>
      <root>
        <mxCell id="0" />
        <mxCell id="1" parent="0" />
      </root>
    </mxGraphModel>
  </diagram>
</mxfile>
